<svg width="790" height="130" xmlns="http://www.w3.org/2000/svg">
 <g>
  <title>Layer 1</title>
  <line fill="none" stroke="#000" stroke-dasharray="5,2,2,2,2,2" x1="1076" y1="416" x2="1075" y2="415" id="svg_2" stroke-linejoin="undefined" stroke-linecap="undefined" stroke-width="99"/>
  <path fill="none" stroke="#000" stroke-width="4" id="svg_6" d="m10,88c0,-1 0,-2 0,-3c0,-1 0,-2 0,-3c0,-1 0,-2 0,-3c0,-1 -0.70711,-2.29291 0,-3c0.70711,-0.70709 1.45881,-0.69345 2,-2c0.38268,-0.92389 0.45881,-2.69345 1,-4c0.38268,-0.92389 1,-2 1,-3c0,-1 0.23463,-2.15225 1,-4c0.54119,-1.30655 1.45881,-2.69345 2,-4c0.76537,-1.84775 0.48626,-2.82376 1,-5c0.22975,-0.97324 0.23463,-2.15225 1,-4c0.54119,-1.30655 0.23463,-2.15225 1,-4c0.54119,-1.30655 1.48626,-1.82376 2,-4c0.22975,-0.97324 0.69255,-2.186 2,-4c0.8269,-1.14728 0.69255,-2.186 2,-4c0.8269,-1.14728 2,-3 3,-4c1,-1 2.186,-2.69254 4,-4c1.14727,-0.8269 1.70546,-2.34619 4,-4c1.814,-1.30746 4.066,-1.87766 6,-3c3.11848,-1.80972 5.02583,-2.67963 7,-3c3.12144,-0.50653 5.82375,-2.48625 8,-3c2.91975,-0.68925 5.87856,-0.49345 9,-1c2.96127,-0.48055 5,0 7,0c3,0 5,0 8,0c2,0 5.31001,0.33749 8,2c1.203,0.7435 3.186,1.69254 5,3c1.14726,0.8269 3,2 5,4c1,1 2.85274,2.1731 4,3c1.814,1.30746 2.85274,3.1731 4,4c1.814,1.30746 3,3 4,4c2,2 3.1731,3.85272 4,5c1.30745,1.814 2.41885,4.41885 4,6c1.58115,1.58115 3.41885,3.41885 5,5c1.58115,1.58115 3.85274,3.1731 5,4c1.814,1.30746 2.41885,2.41885 4,4c1.58115,1.58115 2.41885,2.41885 4,4c1.58115,1.58115 2.87766,3.06601 4,5c1.80972,3.11847 2.69255,5.186 4,7c1.65381,2.29453 3.34619,3.70547 5,6c1.30745,1.814 3.34619,3.70547 5,6c1.30745,1.814 2,3 4,5c1,1 2.41885,2.41885 4,4c1.58115,1.58115 3.186,0.69254 5,2c1.14726,0.8269 2.82375,2.48627 5,3c0.97325,0.22977 4.0535,0.5405 6,1c2.17625,0.51373 3.0535,0.5405 5,1c2.17625,0.51373 4,1 5,1c2,0 4,0 5,0c2,0 3.0535,-0.5405 5,-1c2.17625,-0.51373 3.69344,-1.4588 5,-2c1.84776,-0.76538 3.82375,-2.48627 6,-3c0.97325,-0.22977 2.69255,-1.186 4,-3c0.8269,-1.14728 2.69255,-2.186 4,-4c1.65381,-2.29453 4.14429,-3.93414 5,-6c1.21014,-2.92157 0.78986,-4.07843 2,-7c0.85571,-2.06586 1.2565,-3.797 2,-5c1.66251,-2.69 2.41589,-4.76108 4,-8c1.38934,-2.84073 2.33749,-6.31 4,-9c2.2305,-3.60901 4,-6 6,-9c2,-3 4.20682,-5.81265 6,-8c2.28589,-2.78833 4,-6 6,-8c2,-2 3.297,-4.61383 6,-7c1.67633,-1.47983 4,-4 6,-5c2,-1 3.31,-2.33749 6,-4c1.203,-0.7435 2.31,-1.33749 5,-3c1.203,-0.7435 2.69345,-1.4588 4,-2c0.92389,-0.38269 2,0 3,0c2,0 3,0 5,0c1,0 4,0 6,0c4,0 6.87857,0.49345 10,1c1.97418,0.32036 6,1 9,2c3,1 5.186,1.69255 7,3c2.29453,1.65381 4.41885,3.41885 6,5c1.58115,1.58115 3.69254,3.186 5,5c1.65381,2.29453 3.36755,5.10263 4,7c1.58115,4.74341 3.56952,7.133 5,11c1.55161,4.19434 2.73145,7.0769 4,11c1.65686,5.12396 2.56952,9.133 4,13c1.55161,4.19434 2.61066,8.15927 4,11c1.58411,3.23892 3.20682,5.81265 5,8c2.28589,2.78833 3.34619,4.70547 5,7c1.30746,1.814 1.71411,4.21167 4,7c0.89661,1.09366 2.81265,4.20682 5,6c2.78833,2.28589 4.70547,4.34619 7,6c1.814,1.30746 5.07843,2.78986 8,4c2.06586,0.85571 5.0535,1.5405 7,2c2.17624,0.51373 4,1 6,1c1,0 3,0 5,0c1,0 2.85272,-1.1731 4,-2c1.814,-1.30746 4,-3 6,-4c2,-1 4,-3 6,-5c2,-2 3.71411,-3.21167 6,-6c1.79318,-2.18735 4.20682,-3.81265 6,-6c2.28589,-2.78833 3.69254,-5.186 5,-7c1.65381,-2.29453 3.33749,-5.31 5,-8c1.487,-2.40601 3.87766,-4.06601 5,-6c1.80972,-3.11847 2.78986,-4.07843 4,-7c0.85571,-2.06586 2.78986,-4.07843 4,-7c0.85571,-2.06586 2.20682,-3.81265 4,-6c2.28589,-2.78833 2.41885,-5.41885 4,-7c1.58115,-1.58115 3.34619,-3.70547 5,-6c1.30746,-1.814 3.41885,-2.41885 5,-4c1.58115,-1.58115 1.70547,-4.34619 4,-6c1.81396,-1.30746 3.59399,-2.513 6,-4c2.69,-1.66251 4.31,-1.33749 7,-3c1.203,-0.7435 2.82373,-1.48627 5,-2c1.94647,-0.4595 4,0 5,0c2,0 3,0 4,0c3,0 4.02673,-0.22977 5,0c2.17627,0.51373 4.41888,1.41885 6,3c1.58112,1.58115 2,3 4,5c2,2 3.19031,3.88153 5,7c1.12231,1.93399 2.33746,4.31 4,7c1.487,2.40601 3.78986,6.07843 5,9c0.85571,2.06586 1.84723,5.04132 3,9c0.88416,3.03616 3,5 4,8c1,3 1.14429,4.93414 2,7c1.21014,2.92157 1.51947,5.03873 2,8c0.50653,3.12143 1,6 1,9c0,3 -0.14807,6.22836 1,9c1.0824,2.61313 1.78986,4.07843 3,7c0.85571,2.06586 2,4 4,6c1,1 2.69257,3.186 4,5c1.65381,2.29453 3.07611,2.61731 4,3c1.30658,0.5412 3,1 4,2c1,1 3,1 5,1c1,0 2,0 3,0c1,0 3,0 4,0c2,0 4,-1 5,-2c1,-1 2.69257,-2.186 4,-4c0.8269,-1.14728 2.87769,-4.06601 4,-6c1.80969,-3.11847 3.84723,-6.04132 5,-10c0.88416,-3.03616 2.33197,-6.22937 4,-10c1.45862,-3.29733 2.84723,-7.04132 4,-11c0.88416,-3.03616 2,-6 3,-10c1,-4 2,-8 3,-12c1,-4 2.84723,-8.04132 4,-12c0.88416,-3.03616 2.28857,-6.86829 4,-11c1.21014,-2.92157 3.28857,-5.86829 5,-10c1.21014,-2.92157 3.513,-5.59399 5,-8c1.66254,-2.69 3,-5 4,-7c1,-2 3.18604,-3.69255 5,-5c1.14728,-0.8269 2.18604,-1.69255 4,-3c1.14728,-0.8269 2.07611,-0.61731 3,-1c1.30658,-0.5412 3,-1 4,-1c2,0 3,0 5,0c2,0 4.01294,-0.16019 5,0c3.12146,0.50655 3.3869,1.9176 6,3c0.92389,0.38269 3.41888,0.41885 5,2c1.58112,1.58115 3,3 4,4c2,2 3.18604,1.69255 5,3c1.14728,0.8269 2.18604,2.69254 4,4c1.14728,0.8269 2,2 4,4c1,1 2,3 4,5c1,1 2,4 3,6c1,2 2.34619,4.70547 4,7c1.30743,1.814 0.9281,4.61105 3,7c1.46509,1.68924 4,4 6,5c2,1 4.01294,2.83981 5,3c3.12146,0.50653 4.22833,0.85196 7,2c1.30658,0.5412 3,2 5,2c1,0 2,0 3,0c1,0 2,0 3,0c1,0 2,0 3,0c1,0 3,0 4,0l1,0l0,-1l1,0"/>
  <path fill="none" stroke="#000" stroke-width="4" id="svg_7" d="m729,40c1,1 2,2 3,3c2,2 3,3 4,4c1,1 1.85272,2.1731 3,3c1.81396,1.30746 2.61731,2.07611 3,3c0.5412,1.30655 2.61731,1.07611 3,2c0.5412,1.30655 2,1 2,2c0,1 1.29291,1.29291 2,2c0.70709,0.70709 1.29291,0.29291 2,1c0.70709,0.70709 -0.29291,1.29291 -1,2c-0.70709,0.70709 -1.69342,1.4588 -3,2c-0.92389,0.38269 -2,0 -3,1c-1,1 -2,1 -3,1c-1,0 -2,1 -4,1c-2,0 -2.82373,0.48627 -5,1c-0.97327,0.22977 -2,0 -3,1c-1,1 -2,1 -3,1l-1,1l-2,0l-1,0"/>
 </g>

</svg>